<svg width="24" height="24" viewBox="0 0 24 24" fill="none" xmlns="http://www.w3.org/2000/svg">
<path d="M2.75 13.4968H21.25C21.6642 13.4968 22 13.8326 22 14.2468C22 14.6265 21.7178 14.9403 21.3518 14.9899L21.25 14.9968H2.75C2.33579 14.9968 2 14.661 2 14.2468C2 13.8671 2.28215 13.5533 2.64823 13.5036L2.75 13.4968ZM2.75 9H21.25C21.6642 9 22 9.33579 22 9.75C22 10.1297 21.7178 10.4435 21.3518 10.4931L21.25 10.5H2.75C2.33579 10.5 2 10.1642 2 9.75C2 9.3703 2.28215 9.05651 2.64823 9.00685L2.75 9Z" fill="#3C4059"/>
<path d="M12 7C11.8543 7 11.7149 6.94806 11.6139 6.85614L7.14956 2.79364C6.94449 2.60702 6.95113 2.31029 7.16442 2.13086C7.37763 1.95143 7.71677 1.95724 7.92185 2.14385L12 5.85495L16.0781 2.14385C16.2832 1.95724 16.6223 1.95143 16.8356 2.13086C17.0489 2.31029 17.0555 2.60702 16.8504 2.79364L12.3861 6.85614C12.2851 6.94806 12.1457 7 12 7Z" fill="#3C4059"/>
<path d="M11.5 16.9968C11.6603 16.9968 11.8137 17.0487 11.9248 17.1406L16.8355 21.2031C17.0611 21.3897 17.0538 21.6865 16.8191 21.8659C16.5846 22.0453 16.2115 22.0395 15.986 21.8529L11.5 18.1418L7.01407 21.8529C6.78849 22.0395 6.41545 22.0453 6.18085 21.8659C5.94625 21.6865 5.93893 21.3897 6.16451 21.2031L11.0752 17.1406C11.1863 17.0487 11.3397 16.9968 11.5 16.9968Z" fill="#3C4059"/>
</svg>
