<svg width="30" height="30" viewBox="0 0 30 30" fill="none" xmlns="http://www.w3.org/2000/svg">
<path d="M6.68277 10.1873C8.47563 10.1873 9.92902 8.73393 9.92902 6.94107C9.92902 5.14822 8.47563 3.69482 6.68277 3.69482C4.88992 3.69482 3.43652 5.14822 3.43652 6.94107C3.43652 8.73393 4.88992 10.1873 6.68277 10.1873Z" stroke="white" stroke-linecap="round" stroke-linejoin="round"/>
<path d="M9.52555 5.31689H24.7568C26.6518 5.31689 26.873 8.90752 24.9655 8.90752H9.35742" stroke="white" stroke-linecap="round" stroke-linejoin="round"/>
<path d="M6.95426 26.305C8.74711 26.305 10.2005 24.8516 10.2005 23.0588C10.2005 21.2659 8.74711 19.8125 6.95426 19.8125C5.1614 19.8125 3.70801 21.2659 3.70801 23.0588C3.70801 24.8516 5.1614 26.305 6.95426 26.305Z" stroke="white" stroke-linecap="round" stroke-linejoin="round"/>
<path d="M9.79668 21.4336H25.0279C26.9223 21.4336 27.1436 25.0242 25.2361 25.0242H9.62793" stroke="white" stroke-linecap="round" stroke-linejoin="round"/>
<path d="M12.7221 18.3069C14.4428 18.3069 15.8377 16.912 15.8377 15.1913C15.8377 13.4706 14.4428 12.0757 12.7221 12.0757C11.0014 12.0757 9.60645 13.4706 9.60645 15.1913C9.60645 16.912 11.0014 18.3069 12.7221 18.3069Z" stroke="white" stroke-linecap="round" stroke-linejoin="round"/>
<path d="M15.3809 13.2998H25.1071C26.9977 13.2998 27.0052 17.1073 25.1071 17.1073H15.3821" stroke="white" stroke-linecap="round" stroke-linejoin="round"/>
</svg>
