<svg width="30" height="30" viewBox="0 0 30 30" fill="none" xmlns="http://www.w3.org/2000/svg">
<path d="M17.1337 4.11625C16.8994 3.88181 16.5815 3.75007 16.25 3.75H5C4.66848 3.75 4.35054 3.8817 4.11612 4.11612C3.8817 4.35054 3.75 4.66848 3.75 5V16.25C3.75 16.5825 3.88125 16.9 4.11625 17.1337L14.1163 27.1338C14.2321 27.2502 14.3698 27.3427 14.5214 27.4057C14.6731 27.4688 14.8357 27.5013 15 27.5013C15.1643 27.5013 15.3269 27.4688 15.4786 27.4057C15.6302 27.3427 15.7679 27.2502 15.8837 27.1338L27.1338 15.8837C27.3681 15.6493 27.4997 15.3315 27.4997 15C27.4997 14.6685 27.3681 14.3507 27.1338 14.1163L17.1337 4.11625ZM15 24.4825L6.25 15.7325V6.25H15.7325L24.4825 15L15 24.4825Z" fill="white"/>
<path d="M10.6195 12.4998C11.6585 12.4998 12.5008 11.6575 12.5008 10.6186C12.5008 9.57957 11.6585 8.7373 10.6195 8.7373C9.58055 8.7373 8.73828 9.57957 8.73828 10.6186C8.73828 11.6575 9.58055 12.4998 10.6195 12.4998Z" fill="white"/>
</svg>
