<svg width="30" height="30" viewBox="0 0 30 30" fill="none" xmlns="http://www.w3.org/2000/svg">
<path d="M20.625 20.625V26.25H5.625V3.75H15V1.875H5.625C5.12772 1.875 4.65081 2.07254 4.29917 2.42417C3.94754 2.77581 3.75 3.25272 3.75 3.75V26.25C3.75 26.7473 3.94754 27.2242 4.29917 27.5758C4.65081 27.9275 5.12772 28.125 5.625 28.125H20.625C21.1223 28.125 21.5992 27.9275 21.9508 27.5758C22.3025 27.2242 22.5 26.7473 22.5 26.25V20.625H20.625Z" fill="white"/>
<path d="M27.6938 5.39998L24.6 2.30623C24.3196 2.03139 23.9426 1.87744 23.55 1.87744C23.1574 1.87744 22.7804 2.03139 22.5 2.30623L9.375 15.4312V20.625H14.5594L27.6844 7.49998C27.9592 7.21958 28.1132 6.84261 28.1132 6.44998C28.1132 6.05735 27.9592 5.68037 27.6844 5.39998H27.6938ZM13.7812 18.75H11.25V16.2187L20.1 7.35935L22.6406 9.89998L13.7812 18.75ZM23.9625 8.5781L21.4219 6.03748L23.55 3.90935L26.0906 6.44998L23.9625 8.5781Z" fill="white"/>
</svg>
