<svg width="24" height="28" viewBox="0 0 24 28" fill="none" xmlns="http://www.w3.org/2000/svg">
<path d="M11.9999 0.5C9.67921 0.5 7.45361 1.42187 5.81267 3.06282C4.17172 4.70376 3.24985 6.92936 3.24985 9.25V13.66C3.25003 13.8539 3.2051 14.0452 3.1186 14.2188L0.972352 18.51C0.86751 18.7197 0.818005 18.9526 0.828538 19.1868C0.839071 19.421 0.909292 19.6485 1.03253 19.8479C1.15577 20.0473 1.32794 20.2119 1.53269 20.326C1.73743 20.4401 1.96795 20.5 2.20235 20.5H21.7974C22.0318 20.5 22.2623 20.4401 22.467 20.326C22.6718 20.2119 22.8439 20.0473 22.9672 19.8479C23.0904 19.6485 23.1606 19.421 23.1712 19.1868C23.1817 18.9526 23.1322 18.7197 23.0274 18.51L20.8824 14.2188C20.7954 14.0453 20.7501 13.854 20.7499 13.66V9.25C20.7499 6.92936 19.828 4.70376 18.187 3.06282C16.5461 1.42187 14.3205 0.5 11.9999 0.5ZM11.9999 24.25C11.224 24.2504 10.4672 24.0102 9.83362 23.5624C9.20006 23.1147 8.72096 22.4814 8.46235 21.75H15.5374C15.2787 22.4814 14.7996 23.1147 14.1661 23.5624C13.5325 24.0102 12.7757 24.2504 11.9999 24.25Z" fill="black"/>
</svg>
