<svg width="30" height="30" viewBox="0 0 30 30" fill="none" xmlns="http://www.w3.org/2000/svg">
<path d="M7.78457 15.0056L14.0621 15.0056M14.0621 15.0056L14.0621 5.63063L20.6246 5.63062M14.0621 15.0056L14.0621 24.3806L20.6246 24.3806M14.0621 15.0056L20.6246 15.0056M4.70019 12.1875L8.45582 12.1875L8.45582 17.8125L4.70019 17.8125L4.70019 12.1875ZM19.6871 2.8125L23.4371 2.8125L23.4371 8.4375L19.6871 8.4375L19.6871 2.8125ZM19.6871 12.1875L23.4371 12.1875L23.4371 17.8125L19.6871 17.8125L19.6871 12.1875ZM19.6871 21.5625L23.4371 21.5625L23.4371 27.1875L19.6871 27.1875L19.6871 21.5625Z" stroke="white" stroke-width="1.875" stroke-linejoin="round"/>
</svg>
