<svg width="26" height="26" viewBox="0 0 26 26" fill="none" xmlns="http://www.w3.org/2000/svg">
<path fill-rule="evenodd" clip-rule="evenodd" d="M13 3C11.251 2.99968 9.53242 3.45811 8.01591 4.32954C6.4994 5.20096 5.23797 6.4549 4.35753 7.96619C3.47709 9.47749 3.00844 11.1933 2.99835 12.9423C2.98825 14.6913 3.43707 16.4124 4.30001 17.9338C4.88328 17.1757 5.63305 16.562 6.49137 16.14C7.34969 15.718 8.29356 15.499 9.25001 15.5H16.75C17.7065 15.499 18.6503 15.718 19.5087 16.14C20.367 16.562 21.1167 17.1757 21.7 17.9338C22.5629 16.4124 23.0118 14.6913 23.0017 12.9423C22.9916 11.1933 22.5229 9.47749 21.6425 7.96619C20.7621 6.4549 19.5006 5.20096 17.9841 4.32954C16.4676 3.45811 14.7491 2.99968 13 3ZM22.9288 20.595C23.0854 20.3908 23.2354 20.1817 23.3788 19.9675C24.7646 17.9084 25.5033 15.482 25.5 13C25.5 6.09625 19.9038 0.5 13 0.5C6.09626 0.5 0.500013 6.09625 0.500013 13C0.496074 15.7459 1.40006 18.4162 3.07126 20.595L3.06501 20.6175L3.50876 21.1338C4.68112 22.5044 6.13674 23.6045 7.7753 24.3583C9.41386 25.1121 11.1964 25.5016 13 25.5C13.27 25.5 13.5383 25.4917 13.805 25.475C16.0605 25.3328 18.2346 24.5787 20.0938 23.2938C20.9829 22.6804 21.7888 21.9543 22.4913 21.1338L22.935 20.6175L22.9288 20.595ZM13 5.5C12.0055 5.5 11.0516 5.89509 10.3484 6.59835C9.6451 7.30161 9.25001 8.25544 9.25001 9.25C9.25001 10.2446 9.6451 11.1984 10.3484 11.9017C11.0516 12.6049 12.0055 13 13 13C13.9946 13 14.9484 12.6049 15.6517 11.9017C16.3549 11.1984 16.75 10.2446 16.75 9.25C16.75 8.25544 16.3549 7.30161 15.6517 6.59835C14.9484 5.89509 13.9946 5.5 13 5.5Z" fill="black"/>
</svg>
