<svg width="30" height="30" viewBox="0 0 30 30" fill="none" xmlns="http://www.w3.org/2000/svg">
<path d="M12.5 26.25V3.75M3.75 12.5H26.25M6.75 3.75H23.25C24.0456 3.75 24.8087 4.06607 25.3713 4.62868C25.9339 5.19129 26.25 5.95435 26.25 6.75V23.25C26.25 24.0456 25.9339 24.8087 25.3713 25.3713C24.8087 25.9339 24.0456 26.25 23.25 26.25H6.75C5.95435 26.25 5.19129 25.9339 4.62868 25.3713C4.06607 24.8087 3.75 24.0456 3.75 23.25V6.75C3.75 6.35603 3.8276 5.96593 3.97836 5.60195C4.12913 5.23797 4.3501 4.90726 4.62868 4.62868C5.19129 4.06607 5.95435 3.75 6.75 3.75Z" stroke="white" stroke-width="1.875" stroke-miterlimit="10" stroke-linecap="round" stroke-linejoin="round"/>
</svg>
