<svg width="24" height="24" viewBox="0 0 24 24" fill="none" xmlns="http://www.w3.org/2000/svg">
<path d="M9 16C9 16.2652 8.89464 16.5196 8.70711 16.7071C8.51957 16.8946 8.26522 17 8 17C7.73478 17 7.48043 16.8946 7.29289 16.7071C7.10536 16.5196 7 16.2652 7 16C7 15.7348 7.10536 15.4804 7.29289 15.2929C7.48043 15.1054 7.73478 15 8 15C8.26522 15 8.51957 15.1054 8.70711 15.2929C8.89464 15.4804 9 15.7348 9 16ZM13 16C13 16.2652 12.8946 16.5196 12.7071 16.7071C12.5196 16.8946 12.2652 17 12 17C11.7348 17 11.4804 16.8946 11.2929 16.7071C11.1054 16.5196 11 16.2652 11 16C11 15.7348 11.1054 15.4804 11.2929 15.2929C11.4804 15.1054 11.7348 15 12 15C12.2652 15 12.5196 15.1054 12.7071 15.2929C12.8946 15.4804 13 15.7348 13 16ZM16 17C16.2652 17 16.5196 16.8946 16.7071 16.7071C16.8946 16.5196 17 16.2652 17 16C17 15.7348 16.8946 15.4804 16.7071 15.2929C16.5196 15.1054 16.2652 15 16 15C15.7348 15 15.4804 15.1054 15.2929 15.2929C15.1054 15.4804 15 15.7348 15 16C15 16.2652 15.1054 16.5196 15.2929 16.7071C15.4804 16.8946 15.7348 17 16 17Z" fill="black" fill-opacity="0.5"/>
<path fill-rule="evenodd" clip-rule="evenodd" d="M5.25 8V9.303C5.023 9.319 4.81 9.339 4.608 9.367C3.708 9.487 2.95 9.747 2.348 10.348C1.746 10.95 1.488 11.708 1.367 12.608C1.25 13.475 1.25 14.578 1.25 15.945V16.055C1.25 17.422 1.25 18.525 1.367 19.392C1.487 20.292 1.747 21.05 2.348 21.652C2.95 22.254 3.708 22.512 4.608 22.634C5.475 22.75 6.578 22.75 7.945 22.75H16.055C17.422 22.75 18.525 22.75 19.392 22.634C20.292 22.512 21.05 22.254 21.652 21.652C22.254 21.05 22.512 20.292 22.634 19.392C22.75 18.525 22.75 17.422 22.75 16.055V15.945C22.75 14.578 22.75 13.475 22.634 12.608C22.512 11.708 22.254 10.95 21.652 10.348C21.05 9.746 20.292 9.488 19.392 9.367C19.1787 9.33891 18.9646 9.31757 18.75 9.303V8C18.75 6.20979 18.0388 4.4929 16.773 3.22703C15.5071 1.96116 13.7902 1.25 12 1.25C10.2098 1.25 8.4929 1.96116 7.22703 3.22703C5.96116 4.4929 5.25 6.20979 5.25 8ZM12 2.75C10.6076 2.75 9.27225 3.30312 8.28769 4.28769C7.30312 5.27225 6.75 6.60761 6.75 8V9.253C7.123 9.25 7.522 9.25 7.945 9.25H16.055C16.478 9.25 16.877 9.25 17.25 9.253V8C17.25 5.1 14.9 2.75 12 2.75ZM4.808 10.853C4.074 10.952 3.686 11.133 3.409 11.409C3.132 11.686 2.952 12.074 2.853 12.809C2.752 13.564 2.75 14.565 2.75 16C2.75 17.435 2.752 18.436 2.853 19.192C2.952 19.926 3.133 20.314 3.409 20.591C3.686 20.868 4.074 21.048 4.809 21.147C5.563 21.248 6.565 21.25 8 21.25H16C17.435 21.25 18.436 21.248 19.192 21.147C19.926 21.048 20.314 20.867 20.591 20.591C20.868 20.314 21.048 19.926 21.147 19.191C21.248 18.436 21.25 17.435 21.25 16C21.25 14.565 21.248 13.563 21.147 12.808C21.048 12.074 20.867 11.686 20.591 11.409C20.314 11.132 19.926 10.952 19.191 10.853C18.436 10.752 17.435 10.75 16 10.75H8C6.565 10.75 5.563 10.752 4.808 10.853Z" fill="#3C4059" fill-opacity="0.5"/>
</svg>
