<svg width="26" height="26" viewBox="0 0 26 26" fill="none" xmlns="http://www.w3.org/2000/svg">
<path d="M10.5 24.25V1.75M1.75 10.5H24.25M4.75 1.75H21.25C22.0456 1.75 22.8087 2.06607 23.3713 2.62868C23.9339 3.19129 24.25 3.95435 24.25 4.75V21.25C24.25 22.0456 23.9339 22.8087 23.3713 23.3713C22.8087 23.9339 22.0456 24.25 21.25 24.25H4.75C3.95435 24.25 3.19129 23.9339 2.62868 23.3713C2.06607 22.8087 1.75 22.0456 1.75 21.25V4.75C1.75 4.35603 1.8276 3.96593 1.97836 3.60195C2.12913 3.23797 2.3501 2.90726 2.62868 2.62868C3.19129 2.06607 3.95435 1.75 4.75 1.75Z" stroke="white" stroke-width="1.875" stroke-miterlimit="10" stroke-linecap="round" stroke-linejoin="round"/>
</svg>
