<svg width="28" height="27" viewBox="0 0 28 27" fill="none" xmlns="http://www.w3.org/2000/svg">
<path d="M9.625 25.875L14 21.5L18.375 25.875M14 1.5V4M10.25 14V16.5M14 11.5V16.5M17.75 9V16.5M26.5 4.75V20.75C26.5 20.8485 26.4806 20.946 26.4429 21.037C26.4052 21.128 26.35 21.2107 26.2803 21.2803C26.2107 21.35 26.128 21.4052 26.037 21.4429C25.946 21.4806 25.8485 21.5 25.75 21.5H2.25C2.05109 21.5 1.86032 21.421 1.71967 21.2803C1.57902 21.1397 1.5 20.9489 1.5 20.75V4.75C1.5 4.55109 1.57902 4.36032 1.71967 4.21967C1.86032 4.07902 2.05109 4 2.25 4H25.75C25.9489 4 26.1397 4.07902 26.2803 4.21967C26.421 4.36032 26.5 4.55109 26.5 4.75Z" stroke="white" stroke-width="1.875" stroke-linecap="round" stroke-linejoin="round"/>
</svg>
